<svg width="36" height="36" viewBox="0 0 36 36" fill="none" xmlns="http://www.w3.org/2000/svg">
<circle cx="18" cy="18" r="18" fill="white"/>
<path d="M18.3759 16.0507C17.916 16.0507 17.4664 16.187 17.0841 16.4425C16.7017 16.698 16.4036 17.0612 16.2277 17.4861C16.0517 17.9109 16.0056 18.3785 16.0953 18.8295C16.1851 19.2805 16.4065 19.6949 16.7317 20.02C17.0569 20.3452 17.4712 20.5667 17.9222 20.6564C18.3733 20.7461 18.8408 20.7001 19.2657 20.5241C19.6906 20.3481 20.0537 20.0501 20.3092 19.6677C20.5647 19.2853 20.7011 18.8358 20.7011 18.3759C20.7011 18.0705 20.6409 17.7682 20.5241 17.4861C20.4072 17.2039 20.236 16.9476 20.02 16.7317C19.8041 16.5158 19.5478 16.3445 19.2657 16.2277C18.9836 16.1108 18.6812 16.0507 18.3759 16.0507ZM27.6861 13.7536C27.6812 13.0295 27.5479 12.3121 27.2923 11.6346C27.1041 11.1389 26.813 10.6887 26.438 10.3137C26.0631 9.93878 25.6129 9.64761 25.1171 9.45942C24.4397 9.20389 23.7222 9.07056 22.9982 9.06563C21.7887 9 21.4324 9 18.3759 9C15.3193 9 14.9631 9 13.7536 9.06563C13.0295 9.07056 12.3121 9.20389 11.6346 9.45942C11.1389 9.64761 10.6887 9.93878 10.3137 10.3137C9.93878 10.6887 9.64761 11.1389 9.45942 11.6346C9.20389 12.3121 9.07056 13.0295 9.06563 13.7536C9 14.9631 9 15.3193 9 18.3759C9 21.4324 9 21.7887 9.06563 22.9982C9.07572 23.7248 9.20887 24.4444 9.45942 25.1265C9.64677 25.62 9.93771 26.0676 10.3126 26.4391C10.686 26.8163 11.1371 27.1075 11.6346 27.2923C12.3121 27.5479 13.0295 27.6812 13.7536 27.6861C14.9631 27.7517 15.3193 27.7517 18.3759 27.7517C21.4324 27.7517 21.7887 27.7517 22.9982 27.6861C23.7222 27.6812 24.4397 27.5479 25.1171 27.2923C25.6146 27.1075 26.0658 26.8163 26.4391 26.4391C26.814 26.0676 27.105 25.62 27.2923 25.1265C27.5476 24.4457 27.6809 23.7252 27.6861 22.9982C27.7517 21.7887 27.7517 21.4324 27.7517 18.3759C27.7517 15.3193 27.7517 14.9631 27.6861 13.7536ZM25.3046 21.2543C25.2746 21.8329 25.1511 22.4028 24.939 22.9419C24.757 23.3917 24.4864 23.8002 24.1433 24.1433C23.8002 24.4864 23.3917 24.757 22.9419 24.939C22.3977 25.1392 21.8246 25.2501 21.2449 25.2671C20.5042 25.2671 20.3073 25.2671 18.3759 25.2671C16.4444 25.2671 16.2475 25.2671 15.5069 25.2671C14.9272 25.2501 14.3541 25.1392 13.8098 24.939C13.3449 24.7662 12.925 24.4906 12.5816 24.1327C12.2419 23.7963 11.9795 23.39 11.8128 22.9419C11.6117 22.3982 11.5039 21.8245 11.494 21.2449C11.494 20.5042 11.494 20.3073 11.494 18.3759C11.494 16.4444 11.494 16.2475 11.494 15.5069C11.5039 14.9273 11.6117 14.3535 11.8128 13.8098C11.9855 13.3449 12.2612 12.925 12.6191 12.5816C12.9569 12.2437 13.3628 11.9816 13.8098 11.8128C14.3541 11.6125 14.9272 11.5017 15.5069 11.4846C16.2475 11.4846 16.4444 11.4846 18.3759 11.4846C20.3073 11.4846 20.5042 11.4846 21.2449 11.4846C21.8246 11.5017 22.3977 11.6125 22.9419 11.8128C23.4069 11.9855 23.8267 12.2612 24.1702 12.6191C24.5099 12.9554 24.7722 13.3618 24.939 13.8098C25.1392 14.3541 25.2501 14.9272 25.2671 15.5069C25.2671 16.2475 25.2671 16.4444 25.2671 18.3759C25.2671 20.3073 25.3328 20.5042 25.3046 21.2449V21.2543ZM23.8045 14.2786C23.6929 13.9758 23.5169 13.7007 23.2886 13.4725C23.0604 13.2443 22.7854 13.0683 22.4825 12.9566C22.0667 12.8125 21.6287 12.7427 21.1886 12.7503C20.4573 12.7503 20.251 12.7503 18.3759 12.7503C16.5007 12.7503 16.2944 12.7503 15.5631 12.7503C15.1208 12.7547 14.6828 12.8372 14.2692 12.9941C13.971 13.1007 13.6989 13.2695 13.471 13.4894C13.243 13.7092 13.0645 13.9751 12.9472 14.2692C12.8111 14.6868 12.7446 15.1239 12.7503 15.5631C12.7503 16.2944 12.7503 16.5007 12.7503 18.3759C12.7503 20.251 12.7503 20.4573 12.7503 21.1886C12.7596 21.6304 12.842 22.0676 12.9941 22.4825C13.1058 22.7854 13.2818 23.0604 13.51 23.2886C13.7382 23.5169 14.0133 23.6929 14.3161 23.8045C14.7162 23.9516 15.1371 24.0339 15.5631 24.0483C16.2944 24.0483 16.5007 24.0483 18.3759 24.0483C20.251 24.0483 20.4573 24.0483 21.1886 24.0483C21.6309 24.044 22.069 23.9614 22.4825 23.8045C22.7854 23.6929 23.0604 23.5169 23.2886 23.2886C23.5169 23.0604 23.6929 22.7854 23.8045 22.4825C23.9614 22.069 24.044 21.6309 24.0483 21.1886C24.0483 20.4573 24.0483 20.251 24.0483 18.3759C24.0483 16.5007 24.0483 16.2944 24.0483 15.5631C24.0485 15.1204 23.9659 14.6815 23.8045 14.2692V14.2786ZM18.3759 21.9575C17.906 21.9575 17.4407 21.8647 17.0067 21.6846C16.5727 21.5045 16.1785 21.2406 15.8466 20.9079C15.5148 20.5752 15.2519 20.1803 15.0729 19.7458C14.8939 19.3113 14.8024 18.8458 14.8037 18.3759C14.8037 17.6671 15.014 16.9743 15.4079 16.3851C15.8019 15.7959 16.3618 15.3368 17.0168 15.066C17.6718 14.7952 18.3924 14.7249 19.0874 14.8638C19.7824 15.0028 20.4206 15.3448 20.9211 15.8466C21.4216 16.3485 21.762 16.9875 21.8992 17.6829C22.0363 18.3783 21.964 19.0987 21.6915 19.753C21.419 20.4073 20.9585 20.966 20.3682 21.3584C19.778 21.7508 19.0846 21.9593 18.3759 21.9575ZM22.1262 15.4975C21.919 15.4755 21.7272 15.3777 21.5878 15.2227C21.4483 15.0678 21.3712 14.8668 21.3712 14.6583C21.3712 14.4499 21.4483 14.2489 21.5878 14.0939C21.7272 13.939 21.919 13.8411 22.1262 13.8192C22.3335 13.8411 22.5253 13.939 22.6647 14.0939C22.8041 14.2489 22.8812 14.4499 22.8812 14.6583C22.8812 14.8668 22.8041 15.0678 22.6647 15.2227C22.5253 15.3777 22.3335 15.4755 22.1262 15.4975Z" fill="#161617"/>
</svg>
