<svg width="36" height="36" viewBox="0 0 36 36" fill="none" xmlns="http://www.w3.org/2000/svg">
<circle cx="18" cy="18" r="18" fill="white"/>
<path d="M24.4167 7H11.5833C9.05242 7 7 9.05242 7 11.5833V24.4167C7 26.9476 9.05242 29 11.5833 29H24.4167C26.9485 29 29 26.9476 29 24.4167V11.5833C29 9.05242 26.9485 7 24.4167 7ZM14.3333 24.4167H11.5833V14.3333H14.3333V24.4167ZM12.9583 13.171C12.0728 13.171 11.3542 12.4468 11.3542 11.554C11.3542 10.6612 12.0728 9.937 12.9583 9.937C13.8438 9.937 14.5625 10.6612 14.5625 11.554C14.5625 12.4468 13.8447 13.171 12.9583 13.171ZM25.3333 24.4167H22.5833V19.2797C22.5833 16.1923 18.9167 16.4261 18.9167 19.2797V24.4167H16.1667V14.3333H18.9167V15.9513C20.1963 13.5808 25.3333 13.4057 25.3333 18.2209V24.4167Z" fill="#161617"/>
</svg>
