<svg width="36" height="36" viewBox="0 0 36 36" fill="none" xmlns="http://www.w3.org/2000/svg">
<circle cx="18" cy="18" r="18" fill="white"/>
<path d="M30.0887 11.2208C29.2301 11.5975 28.3152 11.8471 27.3614 11.9683C28.3427 11.3825 29.0916 10.4618 29.4437 9.3521C28.5288 9.89757 27.5187 10.2829 26.4422 10.4979C25.5734 9.57289 24.3353 9 22.9846 9C20.3641 9 18.2543 11.1271 18.2543 13.7346C18.2543 14.1098 18.2861 14.4706 18.364 14.814C14.4288 14.6221 10.9467 12.736 8.60755 9.86294C8.19917 10.5715 7.95963 11.3825 7.95963 12.2555C7.95963 13.8948 8.80381 15.348 10.0621 16.1893C9.30166 16.1748 8.5556 15.954 7.92355 15.6063C7.92355 15.6207 7.92355 15.6395 7.92355 15.6582C7.92355 17.9584 9.56429 19.869 11.7159 20.3092C11.3306 20.4145 10.9107 20.465 10.4749 20.465C10.1718 20.465 9.86589 20.4477 9.57872 20.3842C10.192 22.2587 11.9323 23.6368 14.0017 23.6816C12.3912 24.9413 10.3464 25.7004 8.13279 25.7004C7.74461 25.7004 7.37231 25.6831 7 25.6354C9.09675 26.9876 11.5817 27.7596 14.2614 27.7596C22.9716 27.7596 27.7337 20.5444 27.7337 14.2902C27.7337 14.081 27.7265 13.8789 27.7164 13.6784C28.6558 13.0117 29.4451 12.179 30.0887 11.2208Z" fill="#161617"/>
</svg>
