<svg width="22" height="22" viewBox="0 0 22 22" fill="none" xmlns="http://www.w3.org/2000/svg">
<path d="M8.9846 17.7991C10.9241 17.7991 12.735 17.1741 14.2071 16.1326L19.7451 21.6181C20.0021 21.8727 20.3409 22 20.6914 22C21.4509 22 22 21.4214 22 20.6807C22 20.3335 21.8832 20.0095 21.6261 19.7549L16.1232 14.2925C17.2799 12.788 17.9692 10.9248 17.9692 8.89953C17.9692 4.00421 13.9267 0 8.9846 0C4.0308 0 0 4.00421 0 8.89953C0 13.7948 4.0308 17.7991 8.9846 17.7991ZM8.9846 15.878C5.11737 15.878 1.93946 12.7186 1.93946 8.89953C1.93946 5.08048 5.11737 1.92109 8.9846 1.92109C12.8401 1.92109 16.0297 5.08048 16.0297 8.89953C16.0297 12.7186 12.8401 15.878 8.9846 15.878Z" fill="#F9FAFC"/>
</svg>
